<svg version="1.1" id="Layer_1" xmlns="http://www.w3.org/2000/svg" xmlns:xlink="http://www.w3.org/1999/xlink" x="0px" y="0px"
	 width="100%" viewBox="0 0 317 372" enable-background="new 0 0 317 372" xml:space="preserve">
<path fill="#000000" opacity="1.000000" stroke="none" 
	d="
M173.000000,373.000000 
	C115.333344,373.000000 58.166687,373.000000 1.000023,373.000000 
	C1.000015,249.000031 1.000015,125.000069 1.000008,1.000073 
	C106.666618,1.000049 212.333237,1.000049 317.999878,1.000024 
	C317.999939,124.999931 317.999939,248.999863 317.999969,372.999878 
	C269.833344,373.000000 221.666672,373.000000 173.000000,373.000000 
M46.496578,158.885742 
	C46.686897,158.582962 46.877216,158.280167 46.993919,157.992630 
	C46.993919,157.992630 47.009121,158.066238 47.685642,157.759064 
	C49.214668,155.477966 50.650867,153.243362 54.096481,153.935638 
	C55.970982,154.312241 57.970196,154.068130 59.963238,155.025208 
	C60.646145,161.393417 61.329056,167.761642 62.048378,174.817902 
	C63.305840,176.214676 64.563301,177.611450 66.227173,179.653915 
	C68.487091,180.425644 70.732292,181.809219 73.009460,181.864029 
	C83.302315,182.111694 93.604218,181.984329 103.902855,181.990463 
	C107.825264,181.992783 111.747665,181.990829 116.034119,181.990829 
	C116.372910,189.742218 116.807472,196.798309 116.955452,203.860382 
	C117.112015,211.331985 116.766357,218.820663 117.134987,226.277420 
	C117.249397,228.591675 118.978699,230.826111 120.247200,233.728516 
	C123.231117,235.159027 126.085632,237.252243 129.229019,237.865997 
	C134.043503,238.806076 139.057053,238.726715 144.035843,239.912537 
	C143.894333,244.151382 146.492661,249.096756 140.455338,252.103073 
	C140.286850,252.385605 140.118362,252.668137 139.339920,253.203613 
	C138.535126,254.445786 137.730331,255.687973 136.280640,257.345795 
	C134.853424,261.115875 134.302948,264.826202 137.003998,268.542694 
	C137.003998,268.542694 137.117447,268.743713 137.084091,269.357178 
	C137.388016,269.596527 137.691940,269.835846 138.008972,269.999573 
	C138.008972,269.999573 137.933960,269.983429 138.093948,270.545715 
	C138.403320,270.775421 138.712677,271.005127 139.121521,271.605347 
	C139.269012,271.843689 139.482910,271.966431 140.102158,272.619171 
	C141.729019,273.453857 143.355896,274.288544 145.451004,275.764404 
	C147.312393,275.782410 149.173782,275.800415 151.751770,275.930969 
	C153.862854,274.650787 155.973938,273.370605 158.556595,271.916168 
	C158.738525,271.642273 158.920456,271.368408 159.745102,270.757263 
	C163.188858,266.064423 163.566315,261.144684 160.877762,255.492706 
	C160.611420,255.305695 160.345062,255.118683 159.832962,254.361282 
	C158.906677,253.553650 157.980408,252.746033 156.887939,251.466263 
	C156.612686,251.289841 156.337448,251.113403 155.623764,250.255798 
	C155.125092,246.525772 154.626434,242.795761 154.964752,239.007172 
	C156.640671,238.948761 158.316574,238.890366 160.795578,238.953339 
	C161.876480,238.910233 162.957382,238.867126 164.859467,238.947159 
	C175.880157,238.153641 181.779037,233.675934 181.130783,221.591507 
	C180.560776,210.965759 180.987701,200.285599 181.007324,189.629532 
	C181.018982,183.297348 182.289597,182.002594 188.470154,181.996201 
	C200.624756,181.983627 212.780884,182.099121 224.932587,181.913361 
	C227.034103,181.881226 229.116913,180.625443 231.593567,179.810364 
	C231.832047,179.642517 231.964798,179.413330 232.718216,178.984329 
	C240.102875,172.027344 238.273254,163.392288 237.088440,154.463379 
	C237.088440,154.463379 237.131180,154.050217 238.020935,154.014648 
	C243.233154,154.062500 249.066910,152.533127 251.427612,159.610840 
	C251.652069,160.283768 253.043396,160.567505 254.272903,161.673370 
	C261.734802,165.187836 264.778809,164.871750 270.820160,159.965942 
	C271.648956,159.027237 272.642273,158.188019 273.279877,157.133682 
	C277.402008,150.317596 274.540405,140.828278 267.269043,138.787827 
	C265.159698,138.249374 263.050323,137.710938 260.240417,137.034103 
	C258.789276,137.670059 257.338104,138.306030 255.953842,138.946671 
	C255.953842,138.946671 255.949707,138.879761 255.210312,138.966110 
	C253.603653,139.988403 251.418640,140.648804 250.506927,142.105911 
	C248.402252,145.469635 245.408691,145.245132 242.257782,145.121246 
	C240.938522,145.069382 239.618378,145.040146 238.057373,144.094009 
	C238.037033,140.151642 238.365433,136.164871 237.871246,132.282822 
	C237.552460,129.778610 236.027313,127.427986 234.691895,124.412895 
	C231.475510,122.600853 228.259140,120.788811 224.900894,118.502716 
	C224.570953,118.652039 224.241013,118.801353 223.280563,119.035179 
	C222.860474,119.087852 222.440369,119.140518 221.503189,119.095284 
	C221.332779,119.136971 221.162369,119.178650 220.337692,119.120308 
	C219.898926,119.148666 219.460144,119.177017 218.507263,119.098000 
	C218.335327,119.130928 218.163391,119.163864 217.099197,119.091293 
	C214.406357,119.044495 211.713516,118.997696 208.556534,118.221970 
	C200.372925,118.215263 192.189331,118.208565 183.288971,117.829117 
	C182.517548,116.229279 181.064743,114.621239 181.083893,113.030922 
	C181.221451,101.616264 182.103745,90.195648 181.859497,78.796005 
	C181.662064,69.580963 179.051926,62.292877 168.406158,61.763863 
	C163.299881,61.510120 158.197464,61.179371 153.070801,60.105713 
	C153.391144,58.853237 154.359116,57.276642 153.922012,56.403225 
	C151.795212,52.153542 154.887070,50.225342 157.602814,47.813236 
	C157.824112,47.669823 157.938019,47.466301 158.469406,46.946575 
	C158.665817,46.624241 158.862213,46.301910 158.980896,45.982956 
	C158.980896,45.982956 158.984207,46.060699 159.506302,45.894688 
	C159.693588,45.592720 159.880890,45.290752 160.004089,45.007084 
	C160.004089,45.007084 160.030411,45.068325 160.695023,44.707195 
	C163.017792,39.664658 164.094223,34.678658 160.003952,29.996517 
	C160.003952,29.996517 160.074371,30.017012 159.914581,29.482433 
	C159.604919,29.297855 159.295273,29.113276 158.985977,29.014235 
	C158.985977,29.014235 159.071503,29.013910 158.911377,28.479149 
	C158.600510,28.296373 158.289627,28.113598 157.978760,28.020987 
	C157.978760,28.020987 158.068924,28.021044 157.902496,27.491938 
	C157.595932,27.304646 157.289352,27.117352 156.998886,27.005365 
	C156.998886,27.005365 157.074188,26.989298 156.801025,26.405628 
	C156.187775,26.247293 155.574509,26.088959 154.992722,26.019541 
	C154.992722,26.019541 155.081665,25.988102 154.799728,25.412714 
	C154.187256,25.332232 153.574799,25.251747 152.097046,25.041342 
	C147.077118,24.880482 142.109268,24.861273 138.224030,29.992121 
	C134.299820,34.180325 133.756714,39.697712 138.000824,45.006077 
	C138.000824,45.006077 137.932114,44.980286 138.104584,45.503269 
	C138.409439,45.688534 138.714310,45.873802 139.014328,45.980316 
	C139.014328,45.980316 138.935577,45.985100 139.089798,46.516926 
	C139.397964,46.697689 139.706131,46.878456 140.017212,46.985287 
	C140.017212,46.985287 139.943268,46.982338 140.114471,47.501076 
	C140.416336,47.686550 140.718185,47.872021 141.004776,47.991947 
	C141.004776,47.991947 140.941116,48.013809 141.249298,48.725681 
	C142.164291,50.527103 143.495712,52.243732 143.884323,54.152336 
	C144.327301,56.327797 143.929642,58.674427 142.980362,60.992367 
	C139.667770,61.014065 136.327606,60.772762 133.048813,61.116718 
	C127.606461,61.687634 121.896812,62.005539 118.297791,68.342453 
	C117.860405,70.570854 117.066055,72.795685 117.043739,75.028229 
	C116.901993,89.210411 116.930733,103.394302 116.902420,118.022072 
	C113.623138,118.022072 111.827583,118.025002 110.032036,118.021591 
	C97.722473,117.998199 85.412910,117.956879 73.103348,117.956482 
	C67.284996,117.956291 63.903534,120.322647 62.962280,124.995918 
	C62.962280,124.995918 62.958481,124.910164 62.284225,125.267166 
	C61.517292,128.210724 60.479351,131.115295 60.048702,134.107254 
	C59.444351,138.305954 59.291508,142.569672 58.072937,146.945328 
	C53.153400,147.557678 48.707771,147.155579 46.244026,141.892426 
	C45.868729,141.090698 44.839485,140.595093 44.001030,139.243286 
	C43.505432,138.861938 43.009830,138.480606 42.481846,138.035446 
	C42.481846,138.035446 42.418068,138.067886 41.888088,137.430984 
	C35.919994,134.794739 31.694304,135.564026 27.996363,139.996475 
	C27.996363,139.996475 28.008602,139.933548 27.478600,140.090134 
	C27.295828,140.397049 27.113054,140.703949 27.014389,141.018173 
	C27.014389,141.018173 27.021736,140.934067 26.436895,141.095123 
	C26.181322,141.404922 25.925749,141.714737 25.378674,142.077454 
	C25.183559,142.179550 25.084171,142.340698 24.589527,142.938324 
	C24.441772,143.290848 24.294020,143.643356 24.028587,144.652039 
	C23.976482,145.093124 23.924377,145.534210 23.949755,145.980423 
	C23.949755,145.980423 23.954798,145.902939 23.240566,146.352173 
	C23.159061,148.317932 22.939993,150.289566 23.023613,152.248276 
	C23.220476,156.859650 26.834946,161.220535 31.590204,162.794739 
	C38.131584,164.960236 41.447170,164.272034 44.983429,159.985367 
	C44.983429,159.985367 44.970856,160.066620 45.493004,159.886826 
	C45.682678,159.582672 45.872353,159.278519 45.974667,158.975052 
	C45.974667,158.975052 45.975277,159.062408 46.496578,158.885742 
z"/>
<path fill="#2E86AA" opacity="1.000000" stroke="none" 
	d="
M225.042755,118.976761 
	C228.259140,120.788811 231.475510,122.600853 234.768494,124.948959 
	C234.859314,126.292702 234.873550,127.100380 234.900528,128.382355 
	C234.942871,140.833572 234.976364,152.810471 234.999130,164.787384 
	C235.004333,167.523956 234.972519,170.260590 234.833435,173.242752 
	C234.455078,173.977661 234.201065,174.466995 233.784836,175.189270 
	C233.408234,175.945419 233.193863,176.468613 232.989777,176.992325 
	C233.000061,176.992844 232.981293,176.967575 232.620697,177.054321 
	C227.121933,178.095398 222.010666,179.640961 216.839798,179.876129 
	C207.234833,180.312912 197.594482,179.923737 187.970306,180.021072 
	C185.699112,180.044037 183.433655,180.633240 180.969604,181.096222 
	C180.192566,182.114410 179.611481,182.998337 179.021759,184.362747 
	C179.002365,199.564224 178.991592,214.285217 178.992767,229.007507 
	C179.004730,229.008789 179.002319,228.984940 178.793304,229.143463 
	C178.329651,229.544312 178.075027,229.786636 177.615143,230.287018 
	C174.719193,234.456070 170.879990,236.019440 166.261917,236.063324 
	C154.774094,236.172470 143.286560,236.312973 131.798782,236.428986 
	C127.640121,236.470978 123.902702,235.465714 120.994675,231.834320 
	C120.530525,231.426666 120.259789,231.202423 119.997925,230.987915 
	C120.006805,230.997665 120.010643,231.023743 119.978508,230.698181 
	C119.626366,229.570786 119.306358,228.768951 118.995995,227.983063 
	C119.005630,227.998993 119.010735,228.035858 119.018646,227.564102 
	C119.016785,219.334076 119.109627,211.573761 118.956451,203.818329 
	C118.872612,199.573380 118.373032,195.336639 118.147751,190.803925 
	C117.751801,187.321213 117.269028,184.130798 116.441467,180.753052 
	C114.468315,180.376480 112.840424,180.027924 111.211494,180.023026 
	C97.674614,179.982193 84.137535,180.004791 70.325623,179.984253 
	C69.356171,179.735428 68.661629,179.510590 67.817368,178.950470 
	C62.087189,171.809448 63.014420,163.772797 63.070194,155.780960 
	C63.113796,149.533279 62.384918,143.280212 62.002823,136.599716 
	C62.323738,132.416656 62.641109,128.663406 62.958481,124.910164 
	C62.958481,124.910164 62.962280,124.995918 63.228058,124.847137 
	C65.999435,123.132645 68.505043,121.566940 71.478271,120.003555 
	C84.679756,120.003334 97.413971,120.049301 110.147118,119.952980 
	C112.405289,119.935905 114.658989,119.326561 117.091492,118.825333 
	C117.501793,118.437195 117.733383,118.212433 118.156113,117.620949 
	C118.562363,115.452881 118.951111,113.650375 118.960022,111.845993 
	C119.015892,100.527847 118.987129,89.209274 118.949921,77.547394 
	C118.940331,75.369087 118.967186,73.534241 119.181610,71.451370 
	C121.910927,66.541534 125.415497,63.793663 131.139496,63.771210 
	C135.417984,63.754425 139.692154,62.637280 144.326599,62.010605 
	C145.159134,61.955097 145.633316,61.899097 146.075378,61.914806 
	C146.043259,61.986515 145.964935,62.122761 146.158936,62.367752 
	C147.909012,62.425770 149.465103,62.238792 150.985962,62.001308 
	C150.950729,61.950802 150.896194,61.840378 151.241669,61.868073 
	C152.047913,61.903252 152.508698,61.910732 153.234573,62.200905 
	C157.523529,62.981197 161.555573,63.941341 165.569382,63.870319 
	C171.932526,63.757725 176.536560,65.894867 178.984756,72.424866 
	C178.984772,76.050316 178.884277,79.206703 179.017273,82.353210 
	C179.281631,88.607040 179.674576,94.855446 180.013046,101.556969 
	C180.377594,107.669403 180.743454,113.330948 181.468536,119.171867 
	C190.534683,119.257622 199.241592,119.164009 208.216812,119.042908 
	C208.663635,118.993904 208.842163,118.972404 209.020676,118.950897 
	C211.713516,118.997696 214.406357,119.044495 217.662903,119.223663 
	C218.226593,119.356041 218.644409,119.386185 218.644409,119.386185 
	C218.644409,119.386185 219.021378,119.205368 219.021378,119.205368 
	C219.460144,119.177017 219.898926,119.148666 220.785217,119.243683 
	C221.232727,119.367058 221.649246,119.380188 221.649246,119.380188 
	C221.649246,119.380188 222.020279,119.193192 222.020279,119.193192 
	C222.440369,119.140518 222.860474,119.087852 223.878601,119.005890 
	C224.665359,118.976662 224.854065,118.976707 225.042755,118.976761 
z"/>
<path fill="#37C45B" opacity="1.000000" stroke="none" 
	d="
M138.987106,29.861736 
	C142.109268,24.861273 147.077118,24.880482 152.772766,25.260260 
	C153.992889,25.648819 154.537277,25.818460 155.081665,25.988102 
	C155.081665,25.988102 154.992722,26.019541 155.212921,26.159592 
	C155.980148,26.529526 156.527161,26.759411 157.074188,26.989296 
	C157.074188,26.989298 156.998886,27.005365 157.145203,27.174786 
	C157.550659,27.569818 157.809784,27.795431 158.068924,28.021046 
	C158.068924,28.021044 157.978760,28.020987 158.133087,28.183342 
	C158.548782,28.568434 158.810135,28.791172 159.071503,29.013908 
	C159.071503,29.013910 158.985977,29.014235 159.137787,29.180828 
	C159.551178,29.570620 159.812775,29.793814 160.074371,30.017010 
	C160.074371,30.017012 160.003952,29.996517 160.019867,30.383999 
	C160.033997,35.537094 160.032196,40.302711 160.030411,45.068325 
	C160.030411,45.068325 160.004089,45.007084 159.825668,45.144569 
	C159.426239,45.541599 159.205231,45.801151 158.984207,46.060699 
	C158.984207,46.060699 158.980896,45.982956 158.804459,46.156059 
	C158.400177,46.620331 158.172348,46.911503 157.944519,47.202675 
	C157.938019,47.466301 157.824112,47.669823 157.028107,47.900192 
	C153.314102,48.319134 152.048889,50.191265 151.861313,53.215881 
	C151.682495,56.099571 151.228973,58.966232 150.896194,61.840378 
	C150.896194,61.840378 150.950729,61.950802 150.564362,61.996231 
	C148.773651,62.068691 147.369293,62.095726 145.964935,62.122761 
	C145.964935,62.122761 146.043259,61.986515 146.060089,61.466900 
	C146.045181,58.519711 145.946747,56.090736 145.997543,53.664890 
	C146.070923,50.160465 144.640427,48.096302 140.941116,48.013809 
	C140.941116,48.013809 141.004776,47.991947 140.854874,47.824364 
	C140.451065,47.431969 140.197174,47.207153 139.943268,46.982338 
	C139.943268,46.982338 140.017212,46.985287 139.872284,46.809029 
	C139.463425,46.416882 139.199493,46.200989 138.935577,45.985100 
	C138.935577,45.985100 139.014328,45.980316 138.857101,45.819004 
	C138.443954,45.431892 138.188034,45.206089 137.932114,44.980286 
	C137.932114,44.980286 138.000824,45.006077 137.988693,44.618828 
	C138.313400,39.441635 138.650253,34.651684 138.987106,29.861736 
z"/>
<path fill="#37C45B" opacity="1.000000" stroke="none" 
	d="
M42.418068,138.067886 
	C42.418068,138.067886 42.481846,138.035446 42.651886,138.338730 
	C43.252186,139.080643 43.682446,139.519272 44.112705,139.957901 
	C44.839485,140.595093 45.868729,141.090698 46.244026,141.892426 
	C48.707771,147.155579 53.153400,147.557678 58.777462,147.029343 
	C60.013863,147.431183 60.545742,147.748993 61.058853,148.426483 
	C60.760956,150.182709 60.481823,151.579300 60.110348,152.985367 
	C60.018005,152.994858 59.836994,153.036133 59.394020,153.026672 
	C56.955563,153.009949 54.958286,153.053879 52.964981,152.984238 
	C49.399303,152.859680 47.211758,154.282471 47.009121,158.066238 
	C47.009121,158.066238 46.993919,157.992630 46.825901,158.141998 
	C46.430347,158.548370 46.202812,158.805389 45.975277,159.062408 
	C45.975277,159.062408 45.974667,158.975052 45.815308,159.134705 
	C45.427586,159.551788 45.199223,159.809204 44.970856,160.066620 
	C44.970856,160.066620 44.983429,159.985367 44.637428,160.045685 
	C42.090672,160.720932 39.914761,161.452042 37.684494,161.928940 
	C31.084074,163.340332 22.995886,155.225922 23.954798,145.902939 
	C23.954798,145.902939 23.949755,145.980423 24.142429,145.924286 
	C24.718140,145.196472 25.101173,144.524811 25.400730,143.524628 
	C25.238337,142.984360 25.159422,142.772614 25.080507,142.560883 
	C25.084171,142.340698 25.183559,142.179550 25.771500,141.897141 
	C26.450129,141.455902 26.735931,141.194992 27.021736,140.934067 
	C27.021736,140.934067 27.014389,141.018173 27.184240,140.868881 
	C27.572262,140.457581 27.790432,140.195557 28.008602,139.933548 
	C28.008602,139.933548 27.996363,139.996475 28.364510,139.983459 
	C33.294460,139.336258 37.856262,138.702072 42.418068,138.067886 
z"/>
<path fill="#37C45B" opacity="1.000000" stroke="none" 
	d="
M260.940979,137.172485 
	C263.050323,137.710938 265.159698,138.249374 267.729584,139.277985 
	C273.193542,144.921097 274.786560,150.499191 270.428406,156.898712 
	C269.794250,157.829926 269.460449,158.965683 268.707886,160.056763 
	C264.041229,160.345337 259.654266,160.583923 255.124481,160.504181 
	C251.582184,151.917603 244.514404,151.710892 237.137177,151.649719 
	C237.160812,149.755417 237.229065,148.297546 237.732300,146.869720 
	C245.832443,148.079391 252.044342,146.036652 255.949707,138.879761 
	C255.949707,138.879761 255.953842,138.946671 256.288757,138.933929 
	C258.062775,138.338303 259.501892,137.755386 260.940979,137.172485 
z"/>
<path fill="#457F94" opacity="1.000000" stroke="none" 
	d="
M179.030396,183.882278 
	C179.611481,182.998337 180.192566,182.114410 181.420013,181.108170 
	C198.447037,180.635544 214.827713,180.285202 231.208374,179.934860 
	C229.116913,180.625443 227.034103,181.881226 224.932587,181.913361 
	C212.780884,182.099121 200.624756,181.983627 188.470154,181.996201 
	C182.289597,182.002594 181.018982,183.297348 181.007324,189.629532 
	C180.987701,200.285599 180.560776,210.965759 181.130783,221.591507 
	C181.779037,233.675934 175.880157,238.153641 164.279007,238.646942 
	C162.463196,238.508469 161.227844,238.670227 159.992493,238.831970 
	C158.316574,238.890366 156.640671,238.948761 154.287567,238.848419 
	C152.788864,238.508484 151.967346,238.327316 150.705734,238.095581 
	C148.796707,238.099243 147.327805,238.153488 145.615494,238.295441 
	C144.910110,238.615463 144.448105,238.847763 143.986099,239.080048 
	C139.057053,238.726715 134.043503,238.806076 129.229019,237.865997 
	C126.085632,237.252243 123.231117,235.159027 120.110558,233.143311 
	C119.979958,232.378510 119.985992,232.198944 120.291046,232.022873 
	C120.789413,232.023483 120.988754,232.020584 121.188103,232.017700 
	C123.902702,235.465714 127.640121,236.470978 131.798782,236.428986 
	C143.286560,236.312973 154.774094,236.172470 166.261917,236.063324 
	C170.879990,236.019440 174.719193,234.456070 177.829315,230.130066 
	C178.499924,229.471664 178.751114,229.228302 179.002319,228.984940 
	C179.002319,228.984940 179.004730,229.008789 179.171753,228.634796 
	C179.557907,226.800247 179.960648,225.340485 179.967194,223.878952 
	C180.019775,212.147629 180.034363,200.415726 179.955338,188.684692 
	C179.944534,187.081879 179.353012,185.482986 179.030396,183.882278 
z"/>
<path fill="#4A879C" opacity="1.000000" stroke="none" 
	d="
M181.109314,118.992500 
	C180.743454,113.330948 180.377594,107.669403 180.020294,101.076851 
	C180.026794,97.326134 180.123444,94.502174 180.002762,91.687538 
	C179.720566,85.106430 179.334091,78.529778 178.989838,71.951324 
	C176.536560,65.894867 171.932526,63.757725 165.569382,63.870319 
	C161.555573,63.941341 157.523529,62.981197 153.261322,61.941845 
	C153.046402,61.227894 153.069839,61.055698 153.093292,60.883499 
	C158.197464,61.179371 163.299881,61.510120 168.406158,61.763863 
	C179.051926,62.292877 181.662064,69.580963 181.859497,78.796005 
	C182.103745,90.195648 181.221451,101.616264 181.083893,113.030922 
	C181.064743,114.621239 182.517548,116.229279 183.648071,118.161926 
	C184.007172,118.494736 184.008987,118.787598 183.646667,118.831329 
	C182.559341,118.914207 181.834335,118.953354 181.109314,118.992500 
z"/>
<path fill="#4D869B" opacity="1.000000" stroke="none" 
	d="
M118.994049,71.699394 
	C118.967186,73.534241 118.940331,75.369087 118.754501,77.922104 
	C118.384689,91.755394 118.173851,104.870522 117.963013,117.985649 
	C117.733383,118.212433 117.501793,118.437195 116.631760,118.821396 
	C103.260582,118.990479 90.525505,118.950264 77.791527,119.050400 
	C75.528877,119.068184 73.270828,119.669418 71.010651,120.001244 
	C68.505043,121.566940 65.999435,123.132645 63.185173,124.849007 
	C63.903534,120.322647 67.284996,117.956291 73.103348,117.956482 
	C85.412910,117.956879 97.722473,117.998199 110.032036,118.021591 
	C111.827583,118.025002 113.623138,118.022072 116.902420,118.022072 
	C116.930733,103.394302 116.901993,89.210411 117.043739,75.028229 
	C117.066055,72.795685 117.860405,70.570854 118.639008,68.513062 
	C118.984833,69.688904 118.989433,70.694153 118.994049,71.699394 
z"/>
<path fill="#4D869B" opacity="1.000000" stroke="none" 
	d="
M119.992020,232.019363 
	C119.985992,232.198944 119.979958,232.378510 119.971291,232.827591 
	C118.978699,230.826111 117.249397,228.591675 117.134987,226.277420 
	C116.766357,218.820663 117.112015,211.331985 116.955452,203.860382 
	C116.807472,196.798309 116.372910,189.742218 116.034119,181.990829 
	C111.747665,181.990829 107.825264,181.992783 103.902855,181.990463 
	C93.604218,181.984329 83.302315,182.111694 73.009460,181.864029 
	C70.732292,181.809219 68.487091,180.425644 66.383347,179.367340 
	C67.015381,179.149078 67.491234,179.217407 67.967079,179.285736 
	C68.661629,179.510590 69.356171,179.735428 70.734802,180.188751 
	C73.223999,180.632385 75.028931,181.031433 76.834274,181.033279 
	C90.151558,181.046829 103.468918,180.981125 116.786255,180.940369 
	C117.269028,184.130798 117.751801,187.321213 118.136337,191.262451 
	C118.021431,201.438599 117.932037,210.864761 118.035553,220.288803 
	C118.063950,222.874420 118.669846,225.453674 119.010735,228.035858 
	C119.010735,228.035858 119.005630,227.998993 119.022026,228.311798 
	C119.362495,229.424332 119.686569,230.224030 120.010635,231.023743 
	C120.010643,231.023743 120.006805,230.997665 119.997330,231.248245 
	C119.989243,231.672333 119.990631,231.845856 119.992020,232.019363 
z"/>
<path fill="#2E7D92" opacity="1.000000" stroke="none" 
	d="
M67.817368,178.950470 
	C67.491234,179.217407 67.015381,179.149078 66.180145,179.044495 
	C64.563301,177.611450 63.305840,176.214676 62.020462,173.995148 
	C61.987057,168.729279 62.173981,164.274155 61.897335,159.847992 
	C61.752522,157.531021 60.793823,155.264938 60.202690,152.975876 
	C60.481823,151.579300 60.760956,150.182709 61.235294,148.056549 
	C61.620090,143.894501 61.809685,140.462021 61.999283,137.029541 
	C62.384918,143.280212 63.113796,149.533279 63.070194,155.780960 
	C63.014420,163.772797 62.087189,171.809448 67.817368,178.950470 
z"/>
<path fill="#4A879C" opacity="1.000000" stroke="none" 
	d="
M119.181610,71.451370 
	C118.989433,70.694153 118.984833,69.688904 118.977448,68.300018 
	C121.896812,62.005539 127.606461,61.687634 133.048813,61.116718 
	C136.327606,60.772762 139.667770,61.014065 143.466324,61.234528 
	C143.957611,61.654499 143.962921,61.832302 143.968246,62.010105 
	C139.692154,62.637280 135.417984,63.754425 131.139496,63.771210 
	C125.415497,63.793663 121.910927,66.541534 119.181610,71.451370 
z"/>
<path fill="#5CB074" opacity="1.000000" stroke="none" 
	d="
M23.597683,146.127563 
	C22.995886,155.225922 31.084074,163.340332 37.684494,161.928940 
	C39.914761,161.452042 42.090672,160.720932 44.678055,160.051956 
	C41.447170,164.272034 38.131584,164.960236 31.590204,162.794739 
	C26.834946,161.220535 23.220476,156.859650 23.023613,152.248276 
	C22.939993,150.289566 23.159061,148.317932 23.597683,146.127563 
z"/>
<path fill="#2E7D92" opacity="1.000000" stroke="none" 
	d="
M237.297333,146.839676 
	C237.229065,148.297546 237.160812,149.755417 237.105194,151.974884 
	C237.122299,153.174408 237.126740,153.612305 237.131180,154.050217 
	C237.131180,154.050217 237.088440,154.463379 236.913330,155.050034 
	C236.498886,157.565826 236.220276,159.491074 236.028549,161.424927 
	C235.646362,165.279846 235.311920,169.139496 234.957764,172.997192 
	C234.972519,170.260590 235.004333,167.523956 234.999130,164.787384 
	C234.976364,152.810471 234.942871,140.833572 235.120850,128.749344 
	C235.567200,130.400131 235.868591,132.152451 236.032059,133.917526 
	C236.403610,137.929108 236.707382,141.946960 237.097168,146.183441 
	C237.155624,146.404617 237.297333,146.839676 237.297333,146.839676 
z"/>
<path fill="#246E8D" opacity="1.000000" stroke="none" 
	d="
M231.400970,179.872620 
	C214.827713,180.285202 198.447037,180.635544 181.615967,180.973907 
	C183.433655,180.633240 185.699112,180.044037 187.970306,180.021072 
	C197.594482,179.923737 207.234833,180.312912 216.839798,179.876129 
	C222.010666,179.640961 227.121933,178.095398 232.495239,177.322968 
	C232.484192,178.044159 232.238022,178.583481 231.991852,179.122787 
	C231.964798,179.413330 231.832047,179.642517 231.400970,179.872620 
z"/>
<path fill="#55AC6D" opacity="1.000000" stroke="none" 
	d="
M268.987640,160.006790 
	C269.460449,158.965683 269.794250,157.829926 270.428406,156.898712 
	C274.786560,150.499191 273.193542,144.921097 268.052917,139.455154 
	C274.540405,140.828278 277.402008,150.317596 273.279877,157.133682 
	C272.642273,158.188019 271.648956,159.027237 270.178986,159.994476 
	C269.354431,160.017593 269.171021,160.012192 268.987640,160.006790 
z"/>
<path fill="#4D869B" opacity="1.000000" stroke="none" 
	d="
M62.002823,136.599716 
	C61.809685,140.462021 61.620090,143.894501 61.254059,147.696899 
	C60.545742,147.748993 60.013863,147.431183 59.213768,146.959473 
	C59.291508,142.569672 59.444351,138.305954 60.048702,134.107254 
	C60.479351,131.115295 61.517292,128.210724 62.621353,125.088669 
	C62.641109,128.663406 62.323738,132.416656 62.002823,136.599716 
z"/>
<path fill="#55AC6D" opacity="1.000000" stroke="none" 
	d="
M237.576050,154.032440 
	C237.126740,153.612305 237.122299,153.174408 237.149826,152.411316 
	C244.514404,151.710892 251.582184,151.917603 254.780197,160.558670 
	C254.350174,160.964981 254.121597,160.998459 253.893005,161.031921 
	C253.043396,160.567505 251.652069,160.283768 251.427612,159.610840 
	C249.066910,152.533127 243.233154,154.062500 237.576050,154.032440 
z"/>
<path fill="#457F94" opacity="1.000000" stroke="none" 
	d="
M232.355042,179.053558 
	C232.238022,178.583481 232.484192,178.044159 232.855835,177.236206 
	C232.981293,176.967575 233.000061,176.992844 233.151794,176.759109 
	C233.518036,176.002365 233.732544,175.479355 233.947052,174.956329 
	C234.201065,174.466995 234.455078,173.977661 234.833435,173.242752 
	C235.311920,169.139496 235.646362,165.279846 236.028549,161.424927 
	C236.220276,159.491074 236.498886,157.565826 236.923279,155.257477 
	C238.273254,163.392288 240.102875,172.027344 232.355042,179.053558 
z"/>
<path fill="#4D869B" opacity="1.000000" stroke="none" 
	d="
M237.038696,145.962265 
	C236.707382,141.946960 236.403610,137.929108 236.032059,133.917526 
	C235.868591,132.152451 235.567200,130.400131 235.108124,128.275055 
	C234.873550,127.100380 234.859314,126.292702 234.943939,125.246773 
	C236.027313,127.427986 237.552460,129.778610 237.871246,132.282822 
	C238.365433,136.164871 238.037033,140.151642 237.970383,144.713913 
	C237.601822,145.543304 237.320267,145.752777 237.038696,145.962265 
z"/>
<path fill="#55AC6D" opacity="1.000000" stroke="none" 
	d="
M237.097168,146.183441 
	C237.320267,145.752777 237.601822,145.543304 238.091003,145.167206 
	C239.618378,145.040146 240.938522,145.069382 242.257782,145.121246 
	C245.408691,145.245132 248.402252,145.469635 250.506927,142.105911 
	C251.418640,140.648804 253.603653,139.988403 255.580017,138.922943 
	C252.044342,146.036652 245.832443,148.079391 237.732300,146.869720 
	C237.297333,146.839676 237.155624,146.404617 237.097168,146.183441 
z"/>
<path fill="#4D869B" opacity="1.000000" stroke="none" 
	d="
M60.110352,152.985367 
	C60.793823,155.264938 61.752522,157.531021 61.897335,159.847992 
	C62.173981,164.274155 61.987057,168.729279 62.002251,173.651123 
	C61.329056,167.761642 60.646145,161.393417 59.929070,154.297119 
	C59.875599,153.391403 59.856297,153.213776 59.836994,153.036133 
	C59.836994,153.036133 60.018005,152.994858 60.110352,152.985367 
z"/>
<path fill="#60B57C" opacity="1.000000" stroke="none" 
	d="
M144.326599,62.010605 
	C143.962921,61.832302 143.957611,61.654499 143.924805,61.211678 
	C143.929642,58.674427 144.327301,56.327797 143.884323,54.152336 
	C143.495712,52.243732 142.164291,50.527103 141.095215,48.369743 
	C144.640427,48.096302 146.070923,50.160465 145.997543,53.664890 
	C145.946747,56.090736 146.045181,58.519711 146.092224,61.395191 
	C145.633316,61.899097 145.159134,61.955097 144.326599,62.010605 
z"/>
<path fill="#5CB074" opacity="1.000000" stroke="none" 
	d="
M254.082947,161.352646 
	C254.121597,160.998459 254.350174,160.964981 254.923035,160.877014 
	C259.654266,160.583923 264.041229,160.345337 268.707886,160.056763 
	C269.171021,160.012192 269.354431,160.017593 269.812988,160.027023 
	C264.778809,164.871750 261.734802,165.187836 254.082947,161.352646 
z"/>
<path fill="#5CB074" opacity="1.000000" stroke="none" 
	d="
M153.082047,60.494606 
	C153.069839,61.055698 153.046402,61.227894 152.996216,61.659149 
	C152.508698,61.910732 152.047913,61.903252 151.241669,61.868073 
	C151.228973,58.966232 151.682495,56.099571 151.861313,53.215881 
	C152.048889,50.191265 153.314102,48.319134 156.852798,47.944912 
	C154.887070,50.225342 151.795212,52.153542 153.922012,56.403225 
	C154.359116,57.276642 153.391144,58.853237 153.082047,60.494606 
z"/>
<path fill="#5CB074" opacity="1.000000" stroke="none" 
	d="
M151.145844,238.146149 
	C151.967346,238.327316 152.788864,238.508484 153.869080,238.877686 
	C154.626434,242.795761 155.125092,246.525772 155.817566,250.628174 
	C156.011383,251.000549 155.966583,251.068512 155.596252,251.069504 
	C154.486649,251.054901 153.747360,251.039307 152.842438,250.789536 
	C152.431900,250.036942 152.187027,249.518509 151.952591,248.555923 
	C151.690643,244.789902 151.418243,241.468018 151.145844,238.146149 
z"/>
<path fill="#3CBC5E" opacity="1.000000" stroke="none" 
	d="
M139.763199,271.973541 
	C139.482910,271.966431 139.269012,271.843689 138.908279,271.195404 
	C138.441345,270.518127 138.187653,270.250763 137.933960,269.983429 
	C137.933960,269.983429 138.008972,269.999573 137.883087,269.799744 
	C137.543930,269.314514 137.330688,269.029114 137.117447,268.743713 
	C137.117447,268.743713 137.003998,268.542694 137.031784,268.006348 
	C137.068039,266.633240 137.076492,265.796509 137.442017,265.009216 
	C139.895432,267.668610 141.991791,270.278595 144.060074,272.924072 
	C144.031982,272.959564 143.975754,273.030457 143.625580,272.949066 
	C142.104660,272.569641 140.933929,272.271606 139.763199,271.973541 
z"/>
<path fill="#5CB074" opacity="1.000000" stroke="none" 
	d="
M144.010971,239.496307 
	C144.448105,238.847763 144.910110,238.615463 145.646774,238.738739 
	C145.935135,243.050690 145.948807,247.007065 145.977280,250.970871 
	C145.992081,250.978302 145.974014,250.967667 145.623566,251.053528 
	C143.860489,251.446945 142.447876,251.754517 141.011444,252.030182 
	C140.987625,251.998276 140.934616,251.938843 140.934616,251.938843 
	C146.492661,249.096756 143.894333,244.151382 144.010971,239.496307 
z"/>
<path fill="#55AC6D" opacity="1.000000" stroke="none" 
	d="
M160.837418,255.995087 
	C163.566315,261.144684 163.188858,266.064423 159.306473,270.838013 
	C158.867844,270.918793 158.628967,270.748993 158.693237,270.459869 
	C158.823151,269.778259 158.888779,269.385803 159.155090,268.729431 
	C159.606049,266.630157 159.856339,264.794769 160.116013,262.562347 
	C160.099411,261.106750 160.073410,260.048157 160.037445,258.617310 
	C159.998337,257.501007 159.969177,256.756989 160.164352,256.008484 
	C160.388702,256.003967 160.837418,255.995087 160.837418,255.995087 
z"/>
<path fill="#60B57C" opacity="1.000000" stroke="none" 
	d="
M138.605560,29.926929 
	C138.650253,34.651684 138.313400,39.441635 137.975769,44.653175 
	C133.756714,39.697712 134.299820,34.180325 138.605560,29.926929 
z"/>
<path fill="#60B57C" opacity="1.000000" stroke="none" 
	d="
M42.153076,137.749435 
	C37.856262,138.702072 33.294460,139.336258 28.335167,139.970551 
	C31.694304,135.564026 35.919994,134.794739 42.153076,137.749435 
z"/>
<path fill="#4D869B" opacity="1.000000" stroke="none" 
	d="
M184.008987,118.787598 
	C184.008987,118.787598 184.007172,118.494736 184.006439,118.348297 
	C192.189331,118.208565 200.372925,118.215263 208.788605,118.586433 
	C208.842163,118.972404 208.663635,118.993904 207.753357,119.033569 
	C199.350723,118.963676 191.679855,118.875641 184.008987,118.787598 
z"/>
<path fill="#5CB074" opacity="1.000000" stroke="none" 
	d="
M160.362717,44.887760 
	C160.032196,40.302711 160.033997,35.537094 160.030136,30.348793 
	C164.094223,34.678658 163.017792,39.664658 160.362717,44.887760 
z"/>
<path fill="#5CB074" opacity="1.000000" stroke="none" 
	d="
M59.394020,153.026672 
	C59.856297,153.213776 59.875599,153.391403 59.904030,153.836502 
	C57.970196,154.068130 55.970982,154.312241 54.096481,153.935638 
	C50.650867,153.243362 49.214668,155.477966 47.347382,157.912659 
	C47.211758,154.282471 49.399303,152.859680 52.964981,152.984238 
	C54.958286,153.053879 56.955563,153.009949 59.394020,153.026672 
z"/>
<path fill="#5CB074" opacity="1.000000" stroke="none" 
	d="
M137.084946,264.959778 
	C137.076492,265.796509 137.068039,266.633240 137.043961,267.891571 
	C134.302948,264.826202 134.853424,261.115875 136.663406,257.186462 
	C137.046173,257.027100 137.166946,257.123901 137.150452,257.486755 
	C137.131729,258.578491 137.129501,259.307434 137.098755,260.446716 
	C137.075150,262.224670 137.080048,263.592224 137.084946,264.959778 
z"/>
<path fill="#3CBC5E" opacity="1.000000" stroke="none" 
	d="
M151.035187,275.818390 
	C149.173782,275.800415 147.312393,275.782410 145.095047,275.179840 
	C144.484650,274.073669 144.230194,273.552063 143.975754,273.030457 
	C143.975754,273.030457 144.031982,272.959564 144.446289,272.968994 
	C146.928574,273.333618 148.996552,273.688843 151.059479,274.339752 
	C151.048035,275.029785 151.041611,275.424072 151.035187,275.818390 
z"/>
<path fill="#55AC6D" opacity="1.000000" stroke="none" 
	d="
M151.393478,275.874695 
	C151.041611,275.424072 151.048035,275.029785 151.372589,274.315552 
	C152.109116,273.958374 152.527512,273.921143 153.232208,273.781219 
	C154.342148,273.099731 155.165802,272.520966 156.285507,271.895569 
	C156.972031,271.771851 157.362534,271.694733 157.834351,271.737000 
	C157.915680,271.856384 158.085022,272.090424 158.085022,272.090424 
	C155.973938,273.370605 153.862854,274.650787 151.393478,275.874695 
z"/>
<path fill="#5CB074" opacity="1.000000" stroke="none" 
	d="
M143.625580,272.949066 
	C144.230194,273.552063 144.484650,274.073669 144.860931,274.859253 
	C143.355896,274.288544 141.729019,273.453857 139.932678,272.296356 
	C140.933929,272.271606 142.104660,272.569641 143.625580,272.949066 
z"/>
<path fill="#55AC6D" opacity="1.000000" stroke="none" 
	d="
M260.590698,137.103287 
	C259.501892,137.755386 258.062775,138.338303 256.255310,138.931595 
	C257.338104,138.306030 258.789276,137.670059 260.590698,137.103287 
z"/>
<path fill="#2E86AA" opacity="1.000000" stroke="none" 
	d="
M160.394043,238.892670 
	C161.227844,238.670227 162.463196,238.508469 163.868408,238.585358 
	C162.957382,238.867126 161.876480,238.910233 160.394043,238.892670 
z"/>
<path fill="#5CB074" opacity="1.000000" stroke="none" 
	d="
M136.985855,256.978638 
	C137.730331,255.687973 138.535126,254.445786 139.672470,253.098846 
	C140.005020,252.994080 140.063843,253.032333 140.059906,253.358398 
	C140.044113,254.118668 140.032288,254.552887 140.007996,254.992798 
	C139.995529,254.998505 139.989777,255.025284 139.756470,255.207367 
	C138.737747,255.967590 137.952347,256.545746 137.166946,257.123901 
	C137.166946,257.123901 137.046173,257.027100 136.985855,256.978638 
z"/>
<path fill="#5CB074" opacity="1.000000" stroke="none" 
	d="
M157.054123,251.938400 
	C157.980408,252.746033 158.906677,253.553650 159.906677,254.686813 
	C159.980392,255.012344 159.881378,255.091995 159.585938,254.979614 
	C158.512787,253.921310 157.735077,252.975403 156.982452,252.007660 
	C157.007507,251.985809 157.054123,251.938400 157.054123,251.938400 
z"/>
<path fill="#5CB074" opacity="1.000000" stroke="none" 
	d="
M25.484207,143.853149 
	C25.101173,144.524811 24.718140,145.196472 24.103687,145.921722 
	C23.924377,145.534210 23.976482,145.093124 24.421873,144.287933 
	C25.038177,143.900253 25.261194,143.876694 25.484207,143.853149 
z"/>
<path fill="#5CB074" opacity="1.000000" stroke="none" 
	d="
M154.940704,25.700407 
	C154.537277,25.818460 153.992889,25.648819 153.205414,25.325222 
	C153.574799,25.251747 154.187256,25.332232 154.940704,25.700407 
z"/>
<path fill="#5CB074" opacity="1.000000" stroke="none" 
	d="
M156.937607,26.697462 
	C156.527161,26.759411 155.980148,26.529526 155.197189,26.115131 
	C155.574509,26.088959 156.187775,26.247293 156.937607,26.697462 
z"/>
<path fill="#60B57C" opacity="1.000000" stroke="none" 
	d="
M44.056870,139.600586 
	C43.682446,139.519272 43.252186,139.080643 42.668076,138.370636 
	C43.009830,138.480606 43.505432,138.861938 44.056870,139.600586 
z"/>
<path fill="#5CB074" opacity="1.000000" stroke="none" 
	d="
M157.985718,27.756493 
	C157.809784,27.795431 157.550659,27.569818 157.137146,27.137131 
	C157.289352,27.117352 157.595932,27.304646 157.985718,27.756493 
z"/>
<path fill="#5CB074" opacity="1.000000" stroke="none" 
	d="
M158.991440,28.746529 
	C158.810135,28.791172 158.548782,28.568434 158.133087,28.138260 
	C158.289627,28.113598 158.600510,28.296373 158.991440,28.746529 
z"/>
<path fill="#5CB074" opacity="1.000000" stroke="none" 
	d="
M137.100769,269.050446 
	C137.330688,269.029114 137.543930,269.314514 137.876526,269.837555 
	C137.691940,269.835846 137.388016,269.596527 137.100769,269.050446 
z"/>
<path fill="#5CB074" opacity="1.000000" stroke="none" 
	d="
M160.857590,255.743896 
	C160.837418,255.995087 160.388702,256.003967 160.143463,255.778610 
	C159.898209,255.553253 159.881378,255.091995 159.881378,255.091995 
	C159.881378,255.091995 159.980392,255.012344 160.029556,254.972015 
	C160.345062,255.118683 160.611420,255.305695 160.857590,255.743896 
z"/>
<path fill="#5CB074" opacity="1.000000" stroke="none" 
	d="
M138.013947,270.264587 
	C138.187653,270.250763 138.441345,270.518127 138.858536,271.010132 
	C138.712677,271.005127 138.403320,270.775421 138.013947,270.264587 
z"/>
<path fill="#55AC6D" opacity="1.000000" stroke="none" 
	d="
M158.985107,271.006653 
	C158.920456,271.368408 158.738525,271.642273 158.320801,272.003296 
	C158.085022,272.090424 157.915680,271.856384 157.986755,271.599548 
	C158.255020,271.151337 158.445404,270.953430 158.628967,270.748993 
	C158.628967,270.748993 158.867844,270.918793 158.985107,271.006653 
z"/>
<path fill="#5CB074" opacity="1.000000" stroke="none" 
	d="
M159.245255,45.977695 
	C159.205231,45.801151 159.426239,45.541599 159.857727,45.135422 
	C159.880890,45.290752 159.693588,45.592720 159.245255,45.977695 
z"/>
<path fill="#5CB074" opacity="1.000000" stroke="none" 
	d="
M139.977448,252.972382 
	C140.118362,252.668137 140.286850,252.385605 140.694977,252.020966 
	C140.934616,251.938843 140.987625,251.998276 140.871216,252.212708 
	C140.548630,252.656418 140.318298,252.858154 140.063843,253.032333 
	C140.063843,253.032333 140.005020,252.994080 139.977448,252.972382 
z"/>
<path fill="#5CB074" opacity="1.000000" stroke="none" 
	d="
M156.036804,250.968750 
	C156.337448,251.113403 156.612686,251.289841 156.971039,251.702332 
	C157.054123,251.938400 157.007507,251.985809 156.799347,251.866455 
	C156.356781,251.545029 156.148575,251.318832 155.966583,251.068512 
	C155.966583,251.068512 156.011383,251.000549 156.036804,250.968750 
z"/>
<path fill="#5CB074" opacity="1.000000" stroke="none" 
	d="
M159.994476,29.749722 
	C159.812775,29.793814 159.551178,29.570620 159.137604,29.138060 
	C159.295273,29.113276 159.604919,29.297855 159.994476,29.749722 
z"/>
<path fill="#60B57C" opacity="1.000000" stroke="none" 
	d="
M138.018341,45.241779 
	C138.188034,45.206089 138.443954,45.431892 138.859528,45.858383 
	C138.714310,45.873802 138.409439,45.688534 138.018341,45.241779 
z"/>
<path fill="#60B57C" opacity="1.000000" stroke="none" 
	d="
M139.012695,46.251011 
	C139.199493,46.200989 139.463425,46.416882 139.870819,46.845997 
	C139.706131,46.878456 139.397964,46.697689 139.012695,46.251011 
z"/>
<path fill="#5CB074" opacity="1.000000" stroke="none" 
	d="
M158.206970,47.074623 
	C158.172348,46.911503 158.400177,46.620331 158.843323,46.154366 
	C158.862213,46.301910 158.665817,46.624241 158.206970,47.074623 
z"/>
<path fill="#60B57C" opacity="1.000000" stroke="none" 
	d="
M140.028870,47.241707 
	C140.197174,47.207153 140.451065,47.431969 140.862518,47.857136 
	C140.718185,47.872021 140.416336,47.686550 140.028870,47.241707 
z"/>
<path fill="#246E8D" opacity="1.000000" stroke="none" 
	d="
M224.971832,118.739738 
	C224.854065,118.976707 224.665359,118.976662 224.193848,118.963638 
	C224.241013,118.801353 224.570953,118.652039 224.971832,118.739738 
z"/>
<path fill="#246E8D" opacity="1.000000" stroke="none" 
	d="
M218.764313,119.151688 
	C219.021378,119.205368 218.644409,119.386185 218.644409,119.386185 
	C218.644409,119.386185 218.226593,119.356041 218.109024,119.276428 
	C218.163391,119.163864 218.335327,119.130928 218.764313,119.151688 
z"/>
<path fill="#246E8D" opacity="1.000000" stroke="none" 
	d="
M221.761734,119.144241 
	C222.020279,119.193192 221.649246,119.380188 221.649246,119.380188 
	C221.649246,119.380188 221.232727,119.367058 221.112350,119.293686 
	C221.162369,119.178650 221.332779,119.136971 221.761734,119.144241 
z"/>
<path fill="#60B57C" opacity="1.000000" stroke="none" 
	d="
M27.743601,140.011841 
	C27.790432,140.195557 27.572262,140.457581 27.142185,140.865234 
	C27.113054,140.703949 27.295828,140.397049 27.743601,140.011841 
z"/>
<path fill="#5CB074" opacity="1.000000" stroke="none" 
	d="
M45.231934,159.976715 
	C45.199223,159.809204 45.427586,159.551788 45.858986,159.134369 
	C45.872353,159.278519 45.682678,159.582672 45.231934,159.976715 
z"/>
<path fill="#5CB074" opacity="1.000000" stroke="none" 
	d="
M46.235928,158.974075 
	C46.202812,158.805389 46.430347,158.548370 46.862709,158.134369 
	C46.877216,158.280167 46.686897,158.582962 46.235928,158.974075 
z"/>
<path fill="#60B57C" opacity="1.000000" stroke="none" 
	d="
M26.729317,141.014587 
	C26.735931,141.194992 26.450129,141.455902 25.917252,141.870682 
	C25.925749,141.714737 26.181322,141.404922 26.729317,141.014587 
z"/>
<path fill="#60B57C" opacity="1.000000" stroke="none" 
	d="
M25.400730,143.524628 
	C25.261194,143.876694 25.038177,143.900253 24.480713,143.959839 
	C24.294020,143.643356 24.441772,143.290848 24.835018,142.749603 
	C25.159422,142.772614 25.238337,142.984360 25.400730,143.524628 
z"/>
<path fill="#246E8D" opacity="1.000000" stroke="none" 
	d="
M116.441467,180.753052 
	C103.468918,180.981125 90.151558,181.046829 76.834274,181.033279 
	C75.028931,181.031433 73.223999,180.632385 71.009697,180.212738 
	C84.137535,180.004791 97.674614,179.982193 111.211494,180.023026 
	C112.840424,180.027924 114.468315,180.376480 116.441467,180.753052 
z"/>
<path fill="#246E8D" opacity="1.000000" stroke="none" 
	d="
M71.478271,120.003555 
	C73.270828,119.669418 75.528877,119.068184 77.791527,119.050400 
	C90.525505,118.950264 103.260582,118.990479 116.455017,118.986771 
	C114.658989,119.326561 112.405289,119.935905 110.147118,119.952980 
	C97.413971,120.049301 84.679756,120.003334 71.478271,120.003555 
z"/>
<path fill="#246E8D" opacity="1.000000" stroke="none" 
	d="
M179.021759,184.362747 
	C179.353012,185.482986 179.944534,187.081879 179.955338,188.684692 
	C180.034363,200.415726 180.019775,212.147629 179.967194,223.878952 
	C179.960648,225.340485 179.557907,226.800247 179.159790,228.633514 
	C178.991592,214.285217 179.002365,199.564224 179.021759,184.362747 
z"/>
<path fill="#246E8D" opacity="1.000000" stroke="none" 
	d="
M118.156113,117.620949 
	C118.173851,104.870522 118.384689,91.755394 118.790955,78.265556 
	C118.987129,89.209274 119.015892,100.527847 118.960022,111.845993 
	C118.951111,113.650375 118.562363,115.452881 118.156113,117.620949 
z"/>
<path fill="#246E8D" opacity="1.000000" stroke="none" 
	d="
M119.018646,227.564102 
	C118.669846,225.453674 118.063950,222.874420 118.035553,220.288803 
	C117.932037,210.864761 118.021431,201.438599 118.049515,191.554718 
	C118.373032,195.336639 118.872612,199.573380 118.956451,203.818329 
	C119.109627,211.573761 119.016785,219.334076 119.018646,227.564102 
z"/>
<path fill="#246E8D" opacity="1.000000" stroke="none" 
	d="
M178.984741,72.424866 
	C179.334091,78.529778 179.720566,85.106430 180.002762,91.687538 
	C180.123444,94.502174 180.026794,97.326134 180.021637,100.625969 
	C179.674576,94.855446 179.281631,88.607040 179.017273,82.353210 
	C178.884277,79.206703 178.984772,76.050316 178.984741,72.424866 
z"/>
<path fill="#246E8D" opacity="1.000000" stroke="none" 
	d="
M183.646667,118.831329 
	C191.679855,118.875641 199.350723,118.963676 207.485046,119.061058 
	C199.241592,119.164009 190.534683,119.257622 181.468536,119.171867 
	C181.834335,118.953354 182.559341,118.914207 183.646667,118.831329 
z"/>
<path fill="#4A879C" opacity="1.000000" stroke="none" 
	d="
M146.158936,62.367752 
	C147.369293,62.095726 148.773651,62.068691 150.599594,62.046738 
	C149.465103,62.238792 147.909012,62.425770 146.158936,62.367752 
z"/>
<path fill="#246E8D" opacity="1.000000" stroke="none" 
	d="
M119.978500,230.698181 
	C119.686569,230.224030 119.362495,229.424332 119.012390,228.295868 
	C119.306358,228.768951 119.626366,229.570786 119.978500,230.698181 
z"/>
<path fill="#246E8D" opacity="1.000000" stroke="none" 
	d="
M233.784851,175.189270 
	C233.732544,175.479355 233.518036,176.002365 233.141510,176.758591 
	C233.193863,176.468613 233.408234,175.945419 233.784851,175.189270 
z"/>
<path fill="#246E8D" opacity="1.000000" stroke="none" 
	d="
M120.291046,232.022873 
	C119.990631,231.845856 119.989243,231.672333 119.988449,231.238495 
	C120.259789,231.202423 120.530525,231.426666 120.994675,231.834320 
	C120.988754,232.020584 120.789413,232.023483 120.291046,232.022873 
z"/>
<path fill="#246E8D" opacity="1.000000" stroke="none" 
	d="
M178.793304,229.143463 
	C178.751114,229.228302 178.499924,229.471664 178.034561,229.871994 
	C178.075027,229.786636 178.329651,229.544312 178.793304,229.143463 
z"/>
<path fill="#3CBC5E" opacity="1.000000" stroke="none" 
	d="
M145.962479,250.963440 
	C145.948807,247.007065 145.935135,243.050690 145.890167,238.651016 
	C147.327805,238.153488 148.796707,238.099243 150.705734,238.095581 
	C151.418243,241.468018 151.690643,244.789902 151.679474,248.501068 
	C149.584763,249.581375 147.773621,250.272400 145.962479,250.963440 
z"/>
<path fill="#34C75A" opacity="1.000000" stroke="none" 
	d="
M145.977280,250.970856 
	C147.773621,250.272400 149.584763,249.581375 151.669037,248.945221 
	C152.187027,249.518509 152.431900,250.036942 152.947449,251.109436 
	C155.494568,254.105545 157.770996,256.547577 160.047424,258.989594 
	C160.073410,260.048157 160.099411,261.106750 159.918396,262.836487 
	C159.459076,265.336182 159.206741,267.164764 158.954422,268.993317 
	C158.888779,269.385803 158.823151,269.778259 158.693237,270.459869 
	C158.445404,270.953430 158.255020,271.151337 157.905426,271.480164 
	C157.362534,271.694733 156.972031,271.771851 156.031403,271.795715 
	C154.636124,272.456329 153.791016,273.170135 152.945908,273.883942 
	C152.527512,273.921143 152.109116,273.958374 151.377625,274.019836 
	C148.996552,273.688843 146.928574,273.333618 144.474396,272.933502 
	C141.991791,270.278595 139.895432,267.668610 137.442017,265.009216 
	C137.080048,263.592224 137.075150,262.224670 137.401367,260.303223 
	C138.484924,258.174652 139.237350,256.599976 139.989777,255.025284 
	C139.989777,255.025284 139.995529,254.998505 140.334167,254.894119 
	C142.439896,253.515717 144.206955,252.241699 145.974014,250.967682 
	C145.974014,250.967667 145.992081,250.978302 145.977280,250.970856 
z"/>
<path fill="#3CBC5E" opacity="1.000000" stroke="none" 
	d="
M160.037460,258.617310 
	C157.770996,256.547577 155.494568,254.105545 153.113113,251.343613 
	C153.747360,251.039307 154.486649,251.054901 155.596252,251.069504 
	C156.148575,251.318832 156.356781,251.545029 156.774292,251.888306 
	C157.735077,252.975403 158.512787,253.921310 159.585938,254.979614 
	C159.881378,255.091995 159.898209,255.553253 159.919098,255.783127 
	C159.969177,256.756989 159.998337,257.501007 160.037460,258.617310 
z"/>
<path fill="#3CBC5E" opacity="1.000000" stroke="none" 
	d="
M145.623566,251.053528 
	C144.206955,252.241699 142.439896,253.515717 140.346649,254.888412 
	C140.032288,254.552887 140.044113,254.118668 140.059906,253.358398 
	C140.318298,252.858154 140.548630,252.656418 140.895020,252.244614 
	C142.447876,251.754517 143.860489,251.446945 145.623566,251.053528 
z"/>
<path fill="#3CBC5E" opacity="1.000000" stroke="none" 
	d="
M159.155090,268.729431 
	C159.206741,267.164764 159.459076,265.336182 159.909012,263.233521 
	C159.856339,264.794769 159.606049,266.630157 159.155090,268.729431 
z"/>
<path fill="#3CBC5E" opacity="1.000000" stroke="none" 
	d="
M139.756470,255.207367 
	C139.237350,256.599976 138.484924,258.174652 137.429901,259.892853 
	C137.129501,259.307434 137.131729,258.578491 137.150452,257.486755 
	C137.952347,256.545746 138.737747,255.967590 139.756470,255.207367 
z"/>
<path fill="#3CBC5E" opacity="1.000000" stroke="none" 
	d="
M153.232208,273.781219 
	C153.791016,273.170135 154.636124,272.456329 155.735352,271.842377 
	C155.165802,272.520966 154.342148,273.099731 153.232208,273.781219 
z"/>
</svg>